# xmcd CD database file
#
# Track frame offsets:
#	150
#	22992
#	54377
#	81095
#	103920
#	120792
#	152577
#	200190
#
# Disc length: 2868 seconds
#
# Revision: 1
# Processed by: cddbd v1.5PL3 Copyright (c) Steve Scherf et al.
# Submitted via: CDex 1.51
#
DISCID=5c0b3208
DTITLE=Orrin Evans - Meant to Shine
DYEAR=2002
DGENRE=Jazz
TTITLE0=MBBS
TTITLE1=Professor Farworthy
TTITLE2=Dawn Marie
TTITLE3=Don't Write Shit About Me
TTITLE4=Elevation
TTITLE5=Meant to Shine
TTITLE6=Commitment
TTITLE7=JD's Revenge
EXTD=YEAR: 2002
EXTT0=
EXTT1=
EXTT2=
EXTT3=
EXTT4=
EXTT5=
EXTT6=
EXTT7=
PLAYORDER=
